<svg xmlns="http://www.w3.org/2000/svg" xmlns:xlink="http://www.w3.org/1999/xlink" width="267.845" height="255.976" viewBox="0 0 267.845 255.976"><defs><radialGradient id="a" cx="0.54" cy="0.465" fx="0.620437741279602" fy="0.2632894814014435" r="0.656" gradientTransform="translate(0.099 0.059) scale(0.824 0.824)" gradientUnits="objectBoundingBox"><stop offset="0.335" stop-color="#8f9ed8"/><stop offset="0.453" stop-color="#93a1d9"/><stop offset="0.581" stop-color="#a0adde"/><stop offset="0.714" stop-color="#b6bfe5"/><stop offset="0.85" stop-color="#d4daf0"/><stop offset="0.987" stop-color="#fafbfd"/><stop offset="1" stop-color="#fff"/></radialGradient><linearGradient id="b" x1="0.507" y1="0.765" x2="1.032" y2="-0.231" gradientUnits="objectBoundingBox"><stop offset="0" stop-color="#8de0ff"/><stop offset="0.801" stop-color="#c7efff"/><stop offset="1" stop-color="#d7f4ff"/></linearGradient><linearGradient id="c" x1="0.063" y1="0.811" x2="0.498" y2="0.486" gradientUnits="objectBoundingBox"><stop offset="0" stop-color="#24a4ef"/><stop offset="0.348" stop-color="#5fbef4"/><stop offset="1" stop-color="#d7f4ff"/></linearGradient><linearGradient id="d" x1="0.02" y1="0.468" x2="0.922" y2="0.512" gradientUnits="objectBoundingBox"><stop offset="0" stop-color="#3060d7"/><stop offset="0.141" stop-color="#3466d8"/><stop offset="0.338" stop-color="#4178de"/><stop offset="0.567" stop-color="#5796e7"/><stop offset="0.819" stop-color="#75bef4"/><stop offset="1" stop-color="#8ee1ff"/></linearGradient><linearGradient id="e" x1="0.491" y1="0.473" x2="0.373" y2="0.109" gradientUnits="objectBoundingBox"><stop offset="0" stop-color="#80cdf7"/><stop offset="1" stop-color="#d7f4ff"/></linearGradient><linearGradient id="f" y1="0.5" x2="1" y2="0.5" gradientUnits="objectBoundingBox"><stop offset="0" stop-color="#5a99e9"/><stop offset="0.546" stop-color="#3b6fdc"/><stop offset="1" stop-color="#2652d3"/></linearGradient><linearGradient id="g" x1="0.162" y1="0.976" x2="0.495" y2="0.182" gradientUnits="objectBoundingBox"><stop offset="0" stop-color="#336bdb"/><stop offset="0.792" stop-color="#51a8ee"/></linearGradient><linearGradient id="h" x1="0.5" y1="0.265" x2="0.433" y2="1.125" gradientUnits="objectBoundingBox"><stop offset="0" stop-color="#0d38b6"/><stop offset="1" stop-color="#3063c8"/></linearGradient><linearGradient id="i" x1="0.505" y1="0.495" x2="0.603" y2="0.405" gradientUnits="objectBoundingBox"><stop offset="0" stop-color="#2d5cd6"/><stop offset="0.189" stop-color="#1e4ec2"/><stop offset="0.443" stop-color="#1042b0"/><stop offset="0.708" stop-color="#083aa5"/><stop offset="1" stop-color="#0638a2"/></linearGradient><linearGradient id="j" y1="0.5" x2="1" y2="0.5" gradientUnits="objectBoundingBox"><stop offset="0" stop-color="#73557a"/><stop offset="1"/></linearGradient><linearGradient id="k" x1="-3.347" y1="0.5" x2="4.347" y2="0.5" xlink:href="#j"/><linearGradient id="l" x1="0.052" y1="0.5" x2="0.948" y2="0.5" gradientUnits="objectBoundingBox"><stop offset="0"/><stop offset="1" stop-color="#73557a"/></linearGradient><linearGradient id="m" x1="-57.972" y1="0.5" x2="58.972" y2="0.5" xlink:href="#j"/><linearGradient id="n" x1="-11.528" y1="0.5" x2="12.528" y2="0.5" xlink:href="#j"/><linearGradient id="o" x1="0.128" y1="0.5" x2="0.872" y2="0.5" xlink:href="#l"/><linearGradient id="p" x1="-15.227" y1="0.5" x2="16.227" y2="0.5" xlink:href="#j"/></defs><g transform="translate(-40.077 -313.497)"><ellipse cx="74.691" cy="61.568" rx="74.691" ry="61.568" transform="translate(99.309 387.106)" fill="url(#a)" style="mix-blend-mode:multiply;isolation:isolate"/><path d="M194.807,313.706l5.208,77.539-90.559-34.43Z" transform="translate(10.947 0.115)" fill="url(#b)"/><path d="M234.646,388.93,164.34,313.706l5.208,77.539Z" transform="translate(41.414 0.115)" fill="url(#c)"/><path d="M191.414,450.612l-23.725-86.219,65.1-2.315Z" transform="translate(43.273 26.967)" fill="url(#d)"/><path d="M109.455,356.815l10.416-23.725,74.935-19.385Z" transform="translate(10.947 0.115)" fill="url(#e)"/><path d="M89.734,405.946l30.668-64.52,17.938,100.685Z" transform="translate(0 15.504)" fill="url(#f)"/><path d="M200.014,375.857l-72.621,66.256L109.455,341.427Z" transform="translate(10.947 15.504)" fill="url(#g)"/><path d="M217.336,449.786,120.99,429.822l72.621-66.256Z" transform="translate(17.35 27.794)" fill="#2956d4"/><path d="M142.979,444.652l-21.989-38.48,96.346,19.963Z" transform="translate(17.35 51.444)" fill="url(#h)"/><path d="M89.734,382.916l70.6,74.646-21.989-38.48Z" transform="translate(0 38.534)" fill="url(#i)"/><rect width="65.139" height="0.778" transform="translate(210.948 390.959) rotate(-2.016)" fill="url(#j)" style="mix-blend-mode:color-dodge;isolation:isolate"/><rect width="0.778" height="77.714" transform="translate(205.366 313.846) rotate(-3.843)" fill="url(#k)" style="mix-blend-mode:color-dodge;isolation:isolate"/><rect width="95.62" height="0.779" transform="matrix(0.893, -0.45, 0.45, 0.893, 120.215, 356.558)" fill="url(#l)" style="mix-blend-mode:color-dodge;isolation:isolate"/><rect width="0.777" height="96.883" transform="translate(120.265 357.293) rotate(-69.184)" fill="url(#m)" style="mix-blend-mode:color-dodge;isolation:isolate"/><rect width="0.778" height="102.271" transform="translate(120.02 356.999) rotate(-10.102)" fill="url(#n)" style="mix-blend-mode:color-dodge;isolation:isolate"/><rect width="98.303" height="0.777" transform="translate(138.087 457.337) rotate(-42.389)" fill="url(#o)" style="mix-blend-mode:color-dodge;isolation:isolate"/><rect width="0.778" height="89.425" transform="matrix(0.964, -0.265, 0.265, 0.964, 210.587, 391.463)" fill="url(#p)" style="mix-blend-mode:color-dodge;isolation:isolate"/></g></svg>