<svg width="67" height="63" viewBox="0 0 67 63" fill="none" xmlns="http://www.w3.org/2000/svg">
<path d="M60.7773 25.4509L20.452 25.4509L36.0962 10.4862C37.1766 9.33115 37.7777 7.80867 37.7777 6.22707C37.7777 4.64547 37.1766 3.12299 36.0962 1.96795C35.5748 1.41022 34.9444 0.965566 34.2441 0.661562C33.5438 0.357557 32.7884 0.200689 32.025 0.200689C31.2615 0.200689 30.5062 0.357556 29.8059 0.661561C29.1056 0.965565 28.4752 1.41022 27.9538 1.96795L1.89792 27.2227C1.34255 27.7736 0.905636 28.4322 0.614007 29.1581C0.322378 29.884 0.182187 30.6618 0.202039 31.4438L0.202039 31.5197C0.182186 32.3017 0.322378 33.0796 0.614006 33.8055C0.905635 34.5313 1.34255 35.19 1.89792 35.7409L27.9273 60.9974C28.4487 61.5551 29.0791 61.9998 29.7794 62.3038C30.4797 62.6078 31.235 62.7646 31.9985 62.7646C32.762 62.7646 33.5173 62.6078 34.2176 62.3038C34.9179 61.9998 35.5483 61.5551 36.0697 60.9974C37.1501 59.8423 37.7512 58.3198 37.7512 56.7382C37.7512 55.1566 37.1501 53.6342 36.0697 52.4791L20.4256 37.5144L60.7597 37.5144C62.3243 37.4793 63.8108 36.824 64.8924 35.6929C65.9739 34.5617 66.5618 33.0473 66.5267 31.4827C66.5526 30.7072 66.4237 29.9344 66.1474 29.2094C65.8712 28.4844 65.4532 27.8218 64.9179 27.2602C64.3826 26.6986 63.7407 26.2493 63.0298 25.9387C62.3188 25.628 61.5531 25.4622 60.7773 25.4509Z" fill="#BF62A2"/>
</svg>
