<svg xmlns="http://www.w3.org/2000/svg" xmlns:xlink="http://www.w3.org/1999/xlink" width="284.82" height="84.383" viewBox="0 0 284.82 84.383">
  <defs>
    <clipPath id="clip-path">
      <path id="Path_9455" data-name="Path 9455" d="M1722.556,1258.327l1.29-.346,10.036-2.687c3.011-.806,3.9,2.081.653,2.949l-7.279,1.949-1.623.434c.073.237.853,1.6.979,1.809a2.957,2.957,0,0,0,2.529,1.42,2.9,2.9,0,0,0,2.679-1.7l.077-.178c.874-2.221,3.684-1.118,2.81,1.1a5.982,5.982,0,0,1-11,.318c-.126-.274-.911-1.7-1-1.993-2.513.673-3.451-2.2-.6-2.962Zm14.76-38.939a14.752,14.752,0,0,0-20.093,21.352c2.022,2.379,3.292,2.977,4.262,5.187,1.322,3.014-2.148,2.335-3.171.6a13.41,13.41,0,0,0-1.142-1.621,17.775,17.775,0,0,1-5.024-6.684,16.689,16.689,0,0,1-1.467-7.028,17.787,17.787,0,0,1,27.161-15.1,3.766,3.766,0,0,0-.526,1.923Zm.071,29.767c-.208,1.87-.236,2.688-3.058,3.444l-11.61,3.109c-2.547.682-3.359-2.224-.747-2.924l10.309-2.76c1.545-.414,1.73-.475,2.063-1.774a9.828,9.828,0,0,1,2.276-4.2c.8-.969,1.8-1.763,3.107-3.306a14.771,14.771,0,0,0,2.893-13.745l.734-1.468h1.474a3.852,3.852,0,0,0,.485-.031,17.786,17.786,0,0,1-5.535,19.413C1738.259,1246.784,1737.67,1246.612,1737.387,1249.155Z" transform="translate(-1710.681 -1213.426)" fill="red" clip-rule="evenodd"/>
    </clipPath>
    <linearGradient id="linear-gradient" x1="0.462" y1="1.774" x2="0.522" y2="-0.215" gradientUnits="objectBoundingBox">
      <stop offset="0" stop-color="#204a86"/>
      <stop offset="0.31" stop-color="#0078ba"/>
      <stop offset="0.47" stop-color="#00a4ba"/>
      <stop offset="0.7" stop-color="#00c2dc"/>
      <stop offset="1" stop-color="#41ffe8"/>
    </linearGradient>
    <linearGradient id="linear-gradient-2" x1="0.5" y1="1" x2="0.5" y2="0" xlink:href="#linear-gradient"/>
    <linearGradient id="linear-gradient-3" x1="0.422" y1="0.994" x2="0.578" y2="0.006" xlink:href="#linear-gradient"/>
  </defs>
  <g id="Group_3203" data-name="Group 3203" transform="translate(-260.304 -1012.723)">
    <g id="Group_3109" data-name="Group 3109" transform="translate(444.388 1038.196)">
      <g id="Group_3095" data-name="Group 3095" transform="translate(0 0)">
        <path id="Path_9454" data-name="Path 9454" d="M1722.556,1258.327l1.29-.346,10.036-2.687c3.011-.806,3.9,2.081.653,2.949l-7.279,1.949-1.623.434c.073.237.853,1.6.979,1.809a2.957,2.957,0,0,0,2.529,1.42,2.9,2.9,0,0,0,2.679-1.7l.077-.178c.874-2.221,3.684-1.118,2.81,1.1a5.982,5.982,0,0,1-11,.318c-.126-.274-.911-1.7-1-1.993-2.513.673-3.451-2.2-.6-2.962Zm14.76-38.939a14.752,14.752,0,0,0-20.093,21.352c2.022,2.379,3.292,2.977,4.262,5.187,1.322,3.014-2.148,2.335-3.171.6a13.41,13.41,0,0,0-1.142-1.621,17.775,17.775,0,0,1-5.024-6.684,16.689,16.689,0,0,1-1.467-7.028,17.787,17.787,0,0,1,27.161-15.1,3.766,3.766,0,0,0-.526,1.923Zm.071,29.767c-.208,1.87-.236,2.688-3.058,3.444l-11.61,3.109c-2.547.682-3.359-2.224-.747-2.924l10.309-2.76c1.545-.414,1.73-.475,2.063-1.774a9.828,9.828,0,0,1,2.276-4.2c.8-.969,1.8-1.763,3.107-3.306a14.771,14.771,0,0,0,2.893-13.745l.734-1.468h1.474a3.852,3.852,0,0,0,.485-.031,17.786,17.786,0,0,1-5.535,19.413C1738.259,1246.784,1737.67,1246.612,1737.387,1249.155Z" transform="translate(-1710.681 -1213.426)" fill="red" fill-rule="evenodd"/>
        <g id="Group_3094" data-name="Group 3094" clip-path="url(#clip-path)">
          <rect id="Rectangle_1590" data-name="Rectangle 1590" width="35.823" height="53.448" transform="translate(0 0)" fill="url(#linear-gradient)"/>
        </g>
      </g>
      <g id="Group_3108" data-name="Group 3108" transform="translate(4.773 7.007)">
        <g id="Group_3101" data-name="Group 3101">
          <g id="Group_3096" data-name="Group 3096" transform="translate(1.783 3.511)">
            <path id="Path_9456" data-name="Path 9456" d="M1769.4,1313.349a3.319,3.319,0,0,1-2.069-.681,3.964,3.964,0,0,1-3.565-.748,4.269,4.269,0,0,1-1.4-3.97,3.221,3.221,0,0,1,1.228-2.128,3.269,3.269,0,0,1,1.7-.721,2.985,2.985,0,0,1,.581-1.9,2.025,2.025,0,0,1,1.6-.694c.8-.012,2.153.273,2.195,2.3a.471.471,0,0,1-.942.019c-.02-.978-.393-1.392-1.24-1.378a1.112,1.112,0,0,0-.888.358,2.45,2.45,0,0,0-.336,1.692.472.472,0,0,1-.519.538,2.166,2.166,0,0,0-1.56.517,2.275,2.275,0,0,0-.881,1.492,3.311,3.311,0,0,0,1.074,3.157,3.089,3.089,0,0,0,2.9.5.474.474,0,0,1,.484.1,2.426,2.426,0,0,0,1.928.592,2.916,2.916,0,0,0,2.034-1.043,5.456,5.456,0,0,0,.867-3.207c0-.012,0-.024,0-.036v-11.346a.471.471,0,1,1,.942,0v11.33a6.367,6.367,0,0,1-1.045,3.81,3.839,3.839,0,0,1-2.708,1.429C1769.654,1313.343,1769.526,1313.349,1769.4,1313.349Z" transform="translate(-1762.33 -1296.291)" fill="#efef0f"/>
          </g>
          <g id="Group_3097" data-name="Group 3097" transform="translate(0 4.665)">
            <path id="Path_9457" data-name="Path 9457" d="M1750.573,1316.408a.478.478,0,0,1-.1-.011,3.042,3.042,0,0,1-2.188-3.151,2.6,2.6,0,0,0,.851-4.329,3.063,3.063,0,0,1,.576-2.373,3.386,3.386,0,0,1,3.481-1.056,2.528,2.528,0,0,1,2.066,2.171.471.471,0,1,1-.934.119,1.638,1.638,0,0,0-1.352-1.374,2.491,2.491,0,0,0-2.483.671,2.165,2.165,0,0,0-.432,1.651,2.618,2.618,0,0,0,1.028,1.472.471.471,0,0,1-.181.858,2.185,2.185,0,0,0-1.679,2.19,2.1,2.1,0,0,0,1.448,2.231.471.471,0,0,1-.1.931Z" transform="translate(-1748.283 -1305.384)" fill="#efef0f"/>
          </g>
          <g id="Group_3098" data-name="Group 3098" transform="translate(3.433)">
            <path id="Path_9458" data-name="Path 9458" d="M1781.336,1276.518a2.542,2.542,0,0,1-.318-.02,1.992,1.992,0,0,1-1.763-1.682,2.125,2.125,0,0,1,.971-2.259,1.729,1.729,0,0,1,1.41-.157,1.58,1.58,0,0,1,.866.821.471.471,0,0,1-.866.371.644.644,0,0,0-.329-.31.854.854,0,0,0-.652.113,1.209,1.209,0,0,0-.472,1.257,1.045,1.045,0,0,0,.953.911,2.05,2.05,0,0,0,1.636-.63,4.114,4.114,0,0,0,1.172-3.2,2.209,2.209,0,0,0-1.4-1.972,2.051,2.051,0,0,0-2.039.174,1.426,1.426,0,0,0-.458,1.313.471.471,0,0,1-.775.459,1.862,1.862,0,0,0-2.06-.243,2.352,2.352,0,0,0-.92,2.25.471.471,0,1,1-.935.114,3.269,3.269,0,0,1,1.408-3.193,2.632,2.632,0,0,1,2.367-.1,2.329,2.329,0,0,1,.74-1.3,2.939,2.939,0,0,1,3.027-.348,3.111,3.111,0,0,1,1.987,2.786,5.006,5.006,0,0,1-1.467,3.946A3.06,3.06,0,0,1,1781.336,1276.518Z" transform="translate(-1775.33 -1268.631)" fill="#efef0f"/>
          </g>
          <g id="Group_3099" data-name="Group 3099" transform="translate(6.016 13.802)">
            <path id="Path_9459" data-name="Path 9459" d="M1801.888,1381.573a.477.477,0,0,1-.124-.017.471.471,0,0,1-.331-.578h0a3.777,3.777,0,0,0-.024-2.3.614.614,0,0,0-.4-.3,1.008,1.008,0,0,0-1.032.179,1.194,1.194,0,0,0-.258,1,.471.471,0,0,1-.892.3,1.31,1.31,0,0,0-1.365-.9.973.973,0,0,0-.816.816.75.75,0,0,0,.263.791.471.471,0,0,1-.461.821,1.668,1.668,0,0,1-.729-1.777,1.892,1.892,0,0,1,1.594-1.58,2,2,0,0,1,1.622.429,1.806,1.806,0,0,1,2.3-.994,1.562,1.562,0,0,1,.987.743,4.633,4.633,0,0,1,.119,3.02A.471.471,0,0,1,1801.888,1381.573Z" transform="translate(-1795.685 -1377.377)" fill="#efef0f"/>
          </g>
          <g id="Group_3100" data-name="Group 3100" transform="translate(9.818 9.293)">
            <path id="Path_9460" data-name="Path 9460" d="M1828.348,1346.206h0a.471.471,0,0,1-.469-.473c.006-1.289.011-2.506-.322-2.841a.412.412,0,0,0-.325-.1.586.586,0,0,0-.648.62.471.471,0,0,1-.471.471h0a.471.471,0,0,1-.471-.471,1.53,1.53,0,0,1,1.59-1.562,1.344,1.344,0,0,1,.992.382c.609.612.6,1.827.6,3.509A.471.471,0,0,1,1828.348,1346.206Z" transform="translate(-1825.64 -1341.846)" fill="#efef0f"/>
          </g>
        </g>
        <g id="Group_3107" data-name="Group 3107" transform="translate(13.279 0)">
          <g id="Group_3102" data-name="Group 3102" transform="translate(0.004 3.511)">
            <path id="Path_9461" data-name="Path 9461" d="M1857.077,1313.349c-.126,0-.253-.006-.382-.018a3.839,3.839,0,0,1-2.708-1.429,6.365,6.365,0,0,1-1.044-3.81v-11.33a.471.471,0,1,1,.942,0v11.346c0,.012,0,.024,0,.036a5.5,5.5,0,0,0,.867,3.207,2.917,2.917,0,0,0,2.034,1.043,2.426,2.426,0,0,0,1.928-.592.47.47,0,0,1,.486-.1,3.088,3.088,0,0,0,2.9-.5,3.312,3.312,0,0,0,1.074-3.157,2.277,2.277,0,0,0-.881-1.492,2.165,2.165,0,0,0-1.561-.517.471.471,0,0,1-.519-.539,2.45,2.45,0,0,0-.336-1.69,1.112,1.112,0,0,0-.888-.358h-.035c-.824,0-1.185.414-1.205,1.379a.471.471,0,1,1-.941-.019c.042-2.028,1.387-2.313,2.194-2.3a2.026,2.026,0,0,1,1.6.694,2.985,2.985,0,0,1,.581,1.9,3.271,3.271,0,0,1,1.7.721,3.222,3.222,0,0,1,1.228,2.128,4.269,4.269,0,0,1-1.4,3.97,3.966,3.966,0,0,1-3.565.748A3.32,3.32,0,0,1,1857.077,1313.349Z" transform="translate(-1852.935 -1296.291)" fill="#efef0f"/>
          </g>
          <g id="Group_3103" data-name="Group 3103" transform="translate(6.021 4.665)">
            <path id="Path_9462" data-name="Path 9462" d="M1905.03,1316.408a.471.471,0,0,1-.1-.93,2.1,2.1,0,0,0,1.452-2.232,2.186,2.186,0,0,0-1.679-2.19.471.471,0,0,1-.179-.859,2.619,2.619,0,0,0,1.027-1.471,2.165,2.165,0,0,0-.432-1.651,2.491,2.491,0,0,0-2.483-.671,1.638,1.638,0,0,0-1.352,1.374.471.471,0,1,1-.934-.119,2.528,2.528,0,0,1,2.066-2.171,3.386,3.386,0,0,1,3.481,1.056,3.063,3.063,0,0,1,.576,2.373,2.6,2.6,0,0,0,.851,4.329,3.042,3.042,0,0,1-2.188,3.151A.475.475,0,0,1,1905.03,1316.408Z" transform="translate(-1900.341 -1305.384)" fill="#efef0f"/>
          </g>
          <g id="Group_3104" data-name="Group 3104" transform="translate(0.002)">
            <path id="Path_9463" data-name="Path 9463" d="M1856.476,1276.518a3.061,3.061,0,0,1-2.081-.9,5.006,5.006,0,0,1-1.467-3.946,3.111,3.111,0,0,1,1.987-2.786,2.94,2.94,0,0,1,3.027.348,2.328,2.328,0,0,1,.74,1.3,2.633,2.633,0,0,1,2.367.1,3.27,3.27,0,0,1,1.408,3.193.471.471,0,1,1-.935-.114,2.352,2.352,0,0,0-.92-2.25,1.867,1.867,0,0,0-2.06.243.471.471,0,0,1-.774-.459,1.439,1.439,0,0,0-.458-1.313,2.051,2.051,0,0,0-2.039-.174,2.209,2.209,0,0,0-1.4,1.972,4.114,4.114,0,0,0,1.171,3.2,2.05,2.05,0,0,0,1.636.631,1.046,1.046,0,0,0,.953-.911,1.209,1.209,0,0,0-.472-1.257.854.854,0,0,0-.652-.113.646.646,0,0,0-.33.31.468.468,0,0,1-.615.248.474.474,0,0,1-.25-.62,1.579,1.579,0,0,1,.866-.821,1.727,1.727,0,0,1,1.41.157,2.125,2.125,0,0,1,.971,2.259,1.993,1.993,0,0,1-1.763,1.682A2.562,2.562,0,0,1,1856.476,1276.518Z" transform="translate(-1852.917 -1268.631)" fill="#efef0f"/>
          </g>
          <g id="Group_3105" data-name="Group 3105" transform="translate(0.118 13.802)">
            <path id="Path_9464" data-name="Path 9464" d="M1854.5,1381.573a.471.471,0,0,1-.454-.347,4.633,4.633,0,0,1,.119-3.02,1.561,1.561,0,0,1,.986-.743,1.807,1.807,0,0,1,2.3.994,2,2,0,0,1,1.623-.429,1.891,1.891,0,0,1,1.594,1.58,1.667,1.667,0,0,1-.729,1.778.471.471,0,0,1-.461-.821.749.749,0,0,0,.263-.791.972.972,0,0,0-.816-.816,1.313,1.313,0,0,0-1.366.9.471.471,0,0,1-.892-.3,1.193,1.193,0,0,0-.258-1,1.008,1.008,0,0,0-1.032-.18.616.616,0,0,0-.4.305,3.827,3.827,0,0,0-.023,2.3.471.471,0,0,1-.455.594Z" transform="translate(-1853.835 -1377.376)" fill="#efef0f"/>
          </g>
          <g id="Group_3106" data-name="Group 3106" transform="translate(0 9.293)">
            <path id="Path_9465" data-name="Path 9465" d="M1853.377,1346.206a.471.471,0,0,1-.471-.469c-.008-1.682-.013-2.9.6-3.509a1.346,1.346,0,0,1,.993-.382,1.53,1.53,0,0,1,1.59,1.562.471.471,0,0,1-.942,0,.591.591,0,0,0-.648-.624.413.413,0,0,0-.325.1c-.333.335-.328,1.552-.322,2.841a.471.471,0,0,1-.469.473Z" transform="translate(-1852.904 -1341.846)" fill="#efef0f"/>
          </g>
        </g>
      </g>
    </g>
    <g id="Group_3110" data-name="Group 3110" transform="translate(316.889 1042.719)">
      <path id="Path_9466" data-name="Path 9466" d="M725.229,1379.61a21.546,21.546,0,0,1-10.048-2.24,16.505,16.505,0,0,1-6.688-6.128,16.715,16.715,0,0,1-2.364-8.866,17.015,17.015,0,0,1,2.333-8.928,16.545,16.545,0,0,1,6.377-6.1,19.97,19.97,0,0,1,18.012-.124,15.618,15.618,0,0,1,6.253,5.973,17.944,17.944,0,0,1,2.3,9.3q0,.56-.062,1.276t-.125,1.338H714.03v-5.662h22.087l-3.733,1.68a9.307,9.307,0,0,0-1.057-4.542,7.733,7.733,0,0,0-2.924-3.018,8.5,8.5,0,0,0-4.355-1.089,8.661,8.661,0,0,0-4.386,1.089,7.6,7.6,0,0,0-2.955,3.049,9.614,9.614,0,0,0-1.058,4.635v1.493a9.407,9.407,0,0,0,1.213,4.822,7.907,7.907,0,0,0,3.422,3.173,11.617,11.617,0,0,0,5.195,1.089,12.587,12.587,0,0,0,4.7-.809,11.425,11.425,0,0,0,3.7-2.427l5.164,5.6a15.05,15.05,0,0,1-5.786,4.013A21.414,21.414,0,0,1,725.229,1379.61Z" transform="translate(-706.128 -1332.947)" fill="#040f26"/>
      <path id="Path_9467" data-name="Path 9467" d="M1057.672,1295.726a17.006,17.006,0,0,1-8.524-2.146,15.739,15.739,0,0,1-6-6,19.911,19.911,0,0,1,0-18.23,15.527,15.527,0,0,1,6-5.973,17.211,17.211,0,0,1,8.524-2.115,14.333,14.333,0,0,1,7.4,1.867,12.269,12.269,0,0,1,4.915,5.662,23.367,23.367,0,0,1,1.742,9.706,24.164,24.164,0,0,1-1.68,9.675,11.968,11.968,0,0,1-4.822,5.693A14.544,14.544,0,0,1,1057.672,1295.726Zm1.68-7.964a8.394,8.394,0,0,0,4.293-1.12,8.192,8.192,0,0,0,3.08-3.2,11.271,11.271,0,0,0,0-9.924,8.252,8.252,0,0,0-3.08-3.173,8.393,8.393,0,0,0-4.293-1.12,8.51,8.51,0,0,0-4.355,1.12,8.234,8.234,0,0,0-3.08,3.173,11.268,11.268,0,0,0,0,9.924,8.174,8.174,0,0,0,3.08,3.2A8.511,8.511,0,0,0,1059.353,1287.762Zm8.773,7.466v-6.844l.187-9.955-.622-9.893v-19.474h9.706v46.165Z" transform="translate(-998.442 -1249.063)" fill="#040f26"/>
      <path id="Path_9468" data-name="Path 9468" d="M1404.116,1313.95a34.363,34.363,0,0,1-9.021-1.213,23.29,23.29,0,0,1-7.59-3.453l3.92-7.715a20.338,20.338,0,0,0,5.786,2.862,21.653,21.653,0,0,0,6.657,1.058,10.432,10.432,0,0,0,5.973-1.493,4.718,4.718,0,0,0,2.177-4.106,4.619,4.619,0,0,0-1.929-3.92q-1.929-1.431-6.222-1.431h-4.6v-6.657l12.132-13.75,1.12,3.609h-22.834v-8.088h30.487v6.533l-12.07,13.75-5.1-2.924h2.924q8.026,0,12.132,3.609a11.782,11.782,0,0,1,4.106,9.27,13.106,13.106,0,0,1-1.929,6.875,13.914,13.914,0,0,1-5.911,5.2A22.814,22.814,0,0,1,1404.116,1313.95Z" transform="translate(-1301.022 -1267.038)" fill="#040f26"/>
      <path id="Path_9469" data-name="Path 9469" d="M2101.632,1345.142a15.2,15.2,0,0,1,7.062,1.587,11.413,11.413,0,0,1,4.853,4.853,17.443,17.443,0,0,1,1.773,8.368v19.163h-9.706v-17.67q0-4.044-1.68-5.973a5.94,5.94,0,0,0-4.729-1.929,7.487,7.487,0,0,0-3.795.964,6.483,6.483,0,0,0-2.613,2.893,11.291,11.291,0,0,0-.933,4.915v16.8h-9.706v-17.67q0-4.044-1.649-5.973a5.845,5.845,0,0,0-4.7-1.929,7.489,7.489,0,0,0-3.8.964,6.483,6.483,0,0,0-2.613,2.893,11.288,11.288,0,0,0-.933,4.915v16.8h-9.706V1345.64h9.271v9.146l-1.742-2.675a11.985,11.985,0,0,1,4.946-5.2,14.846,14.846,0,0,1,7.311-1.773,14.046,14.046,0,0,1,8.057,2.333,11.276,11.276,0,0,1,4.573,7.124l-3.422-.933a13.4,13.4,0,0,1,5.382-6.222A15.75,15.75,0,0,1,2101.632,1345.142Z" transform="translate(-1887.085 -1332.947)" fill="#040f26"/>
    </g>
    <path id="Path_9470" data-name="Path 9470" d="M320.332,1173.09s-9-11.083-28.229-9.284-27.282,11.083-27.282,11.083-8.147,8.052-2.558,13.641,12.22-4.547,12.22-4.547,6.442-9.473,12.315-3.694-2.652,22.546-3.031,32.682.505,15.062,7.547,15.82,10.073-7.389,10.073-7.389,5.115-20.272-2.652-40.07c0,0-1.516-9.662,10.231-3.694s12.6,1.705,12.6,1.705S323.363,1176.974,320.332,1173.09Z" transform="translate(0 -131.735)" fill="url(#linear-gradient-2)"/>
    <circle id="Ellipse_1198" data-name="Ellipse 1198" cx="6.821" cy="6.821" r="6.821" transform="translate(284.378 1012.723)" fill="url(#linear-gradient-3)"/>
    <circle id="Ellipse_1199" data-name="Ellipse 1199" cx="2.748" cy="2.748" r="2.748" transform="translate(277.109 1052.15)" fill="url(#linear-gradient-3)"/>
    <circle id="Ellipse_1200" data-name="Ellipse 1200" cx="2.748" cy="2.748" r="2.748" transform="translate(306.309 1073.72)" fill="url(#linear-gradient-3)"/>
  </g>
</svg>
