<svg width="287" height="1016" viewBox="0 0 287 1016" fill="none" xmlns="http://www.w3.org/2000/svg">
<path d="M185 1031C175.187 1031 165.776 1027.1 158.837 1020.16C151.898 1013.22 148 1003.81 148 994V1016H0V0H148V37C148 27.187 151.898 17.7759 158.837 10.837C165.776 3.89819 175.187 0 185 0H250C259.813 0 269.224 3.89819 276.163 10.837C283.102 17.7759 287 27.187 287 37V321C287 330.813 283.102 340.224 276.163 347.163C269.224 354.102 259.813 358 250 358H195.433C190.574 357.99 185.762 358.944 181.275 360.806C176.787 362.669 172.714 365.403 169.29 368.85C165.843 372.275 163.109 376.35 161.246 380.838C159.384 385.327 158.431 390.14 158.441 395V418C158.471 427.737 162.326 437.072 169.175 443.993C176.023 450.914 185.317 454.867 195.053 455H250C259.813 455 269.224 458.898 276.163 465.837C283.102 472.776 287 482.187 287 492V1031H185Z" fill="white"/>
</svg>
