<svg xmlns="http://www.w3.org/2000/svg" xmlns:xlink="http://www.w3.org/1999/xlink" width="212.553" height="182.211" viewBox="0 0 212.553 182.211"><defs><radialGradient id="a" cx="0.54" cy="0.465" fx="0.467482328414917" fy="0.9775919318199158" r="0.842" gradientTransform="translate(-0.027 0.105) scale(0.642 0.642)" gradientUnits="objectBoundingBox"><stop offset="0.518" stop-color="#93a9d8"/><stop offset="0.605" stop-color="#97acd9"/><stop offset="0.7" stop-color="#a4b6de"/><stop offset="0.798" stop-color="#bac8e6"/><stop offset="0.899" stop-color="#d8e0f1"/><stop offset="1" stop-color="#fff"/></radialGradient><linearGradient id="b" x1="-5.368" y1="0.5" x2="-4.368" y2="0.5" gradientUnits="objectBoundingBox"><stop offset="0" stop-color="#9ed5ff"/><stop offset="0.358" stop-color="#2e9fe4"/><stop offset="0.503" stop-color="#008ada"/><stop offset="1" stop-color="#5330bd"/></linearGradient><linearGradient id="c" y1="0.5" x2="1" y2="0.5" gradientUnits="objectBoundingBox"><stop offset="0" stop-color="#5b5ccb"/><stop offset="0.135" stop-color="#6174d4"/><stop offset="0.411" stop-color="#6ca2e7"/><stop offset="0.657" stop-color="#75c2f4"/><stop offset="0.862" stop-color="#7ad6fc"/><stop offset="1" stop-color="#7cdeff"/></linearGradient><linearGradient id="d" x1="0.031" y1="0.578" x2="0.992" y2="0.456" gradientUnits="objectBoundingBox"><stop offset="0.025" stop-color="#9ae4ff"/><stop offset="0.222" stop-color="#afe9fc"/><stop offset="0.528" stop-color="#cbeff8"/><stop offset="0.798" stop-color="#dcf3f6"/><stop offset="1" stop-color="#e2f5f6"/></linearGradient><linearGradient id="e" y1="0.5" x2="1" y2="0.5" gradientUnits="objectBoundingBox"><stop offset="0" stop-color="#73557a"/><stop offset="1"/></linearGradient><linearGradient id="f" x1="0.018" y1="0.5" x2="0.982" y2="0.5" xlink:href="#e"/></defs><g transform="translate(-373.629 -313.14)"><ellipse cx="47.045" cy="30.211" rx="47.045" ry="30.211" transform="translate(432.86 375.697)" fill="url(#a)" style="mix-blend-mode:multiply;isolation:isolate"/><path d="M539.032,423.14l-49.009-51.659-68.657,19.206,50.555,42.607Z" fill="url(#b)"/><path d="M504.372,313.2l-83.007,77.488,68.657-19.206Z" fill="url(#c)"/><path d="M539.032,423.14,504.372,313.2l-14.35,58.281Z" fill="url(#d)"/><path d="M490.266,371.541l-.486-.119,14.35-58.282.486.119Z" fill="url(#e)" style="mix-blend-mode:color-dodge;isolation:isolate"/><rect width="71.293" height="0.501" transform="matrix(0.963, -0.269, 0.269, 0.963, 421.293, 390.43)" fill="url(#f)" style="mix-blend-mode:color-dodge;isolation:isolate"/><path d="M538.851,423.311l-49.01-51.658.363-.344,49.01,51.658Z" fill="url(#e)" style="mix-blend-mode:color-dodge;isolation:isolate"/></g></svg>