<svg width="79" height="68" viewBox="0 0 79 68" fill="none" xmlns="http://www.w3.org/2000/svg">
<path d="M28.4312 49.0309C28.4142 48.2839 28.3673 47.5839 28.3013 46.9309L31.8191 44.7159L30.6462 40.5039L26.5212 39.9829C25.933 38.5603 25.1433 37.2298 24.1763 36.032L24.6543 30.995L23.0303 29.646L21.3103 28.2159L20.8772 28.8849L19.0093 31.776C18.0126 31.1636 16.9064 30.7505 15.7522 30.5599L15.3452 29.7599L13.4512 26.043L10.4111 27.1289C10.4778 28.3609 10.5462 29.5943 10.6162 30.829C10.6342 31.1623 10.6525 31.494 10.6711 31.824C9.82093 32.3193 9.082 32.9844 8.50024 33.778L7.97217 33.5339L4.46216 31.9109L3.16211 35.646L6.41919 39.5979C6.37819 40.2799 6.35912 41.0109 6.37012 41.7859C6.38012 42.4679 6.41316 43.115 6.46216 43.724L3.0752 45.939L4.42114 50.1949L8.28613 50.7599C8.65013 51.3899 9.0623 52.05 9.5293 52.73C9.8983 53.268 10.2682 53.769 10.6292 54.23C10.3832 55.9093 10.1371 57.5883 9.89111 59.267L13.1042 62.09L15.4922 58.7899C15.8042 58.9319 16.1461 59.074 16.5161 59.209C16.7161 59.281 16.9211 59.3509 17.1311 59.4189C17.5171 59.5419 17.8862 59.639 18.2312 59.719C18.4072 59.76 18.5801 59.798 18.7441 59.83L21.2632 64.9969L24.3032 64.3459C24.2219 62.6793 24.1407 61.0149 24.0593 59.3529C24.054 59.2369 24.0482 59.1209 24.0422 59.0049C24.8132 58.4071 25.5125 57.7223 26.1262 56.964L28.7852 58.334L30.3381 59.1339L31.6682 55.6429L31.7283 55.486L28.3843 51.23C28.4303 50.555 28.4492 49.8179 28.4312 49.0309ZM22.5933 50.2809C21.8054 52.4384 20.2859 54.2513 18.2993 55.4041C16.3127 56.5568 13.985 56.9765 11.7209 56.59C9.45689 56.2034 7.40005 55.0353 5.90845 53.2887C4.41685 51.5421 3.58479 49.3278 3.55737 47.0311C3.52996 44.7345 4.30882 42.5009 5.7583 40.7192C7.20778 38.9376 9.23604 37.7206 11.4902 37.2802C13.7444 36.8397 16.0817 37.2037 18.0952 38.3087C20.1087 39.4137 21.6712 41.1898 22.5103 43.3279C22.9878 44.4228 23.2408 45.6024 23.2544 46.7969C23.268 47.9913 23.0416 49.1765 22.5891 50.282L22.5933 50.2809Z" fill="url(#paint0_linear_2_18658)"/>
<path d="M20.208 67.1749L17.436 61.4879C17.136 61.4109 16.8449 61.328 16.5549 61.236C16.4269 61.195 16.297 61.1519 16.166 61.1069L15.449 62.0969L13.418 64.903L11.845 63.522L8.73706 60.792L7.854 60.016L8.06592 58.568L8.62598 54.7469C8.39598 54.4359 8.17086 54.1209 7.95386 53.8049C7.66486 53.3839 7.38308 52.951 7.11108 52.511L2.95996 51.9049L0.817871 45.1339L4.48804 42.7339C4.47404 42.4259 4.46494 42.1179 4.46094 41.8119C4.45294 41.2909 4.46105 40.765 4.47705 40.241L1.00586 36.0289L1.40601 34.876L2.65894 31.283L3.35107 29.2999L8.01099 31.455C8.07765 31.3883 8.14668 31.3243 8.21802 31.2629C8.37602 31.1216 8.53872 30.9856 8.70605 30.855C8.63939 29.649 8.57253 28.4436 8.50586 27.2389L8.427 25.819L9.76587 25.34L12.8059 24.2539L14.3831 23.6909L17.0339 28.891C17.4027 28.9869 17.7663 29.1021 18.123 29.236L18.3301 29.3159L19.2749 27.8539L19.709 27.184L20.875 25.3839L24.2458 28.184L25.8699 29.533L26.644 30.1759L26.144 35.4679C26.5298 35.9915 26.8869 36.5357 27.2139 37.0979C27.4279 37.4659 27.63 37.845 27.814 38.231L32.1379 38.777L34.031 45.5769L31.8499 46.95L30.2891 47.933C30.3101 48.285 30.325 48.6329 30.332 48.9889C30.344 49.5289 30.34 50.0739 30.321 50.6169L33.8918 55.162L31.3599 61.8069L26.5549 59.33L26.489 59.3949C26.327 59.5542 26.1603 59.7099 25.989 59.8619C26.0603 61.3286 26.1315 62.7933 26.2029 64.256L26.282 65.8719L24.7 66.2109L22.1289 66.762L20.208 67.1749ZM14.8611 56.413L16.2791 57.058C16.5691 57.19 16.8679 57.312 17.1689 57.423C17.3529 57.49 17.5281 57.55 17.7061 57.606C18.0171 57.706 18.33 57.7899 18.665 57.8679C18.836 57.9079 18.983 57.9399 19.113 57.9679L20.0439 58.1499L22.325 62.83C22.2703 61.7046 22.2152 60.5789 22.1599 59.4529L22.095 58.1139L22.8779 57.507C23.5332 56.9992 24.1274 56.4173 24.6489 55.7729L25.624 54.573L29.324 56.4779L29.572 55.8279L26.446 51.85L26.491 51.126C26.533 50.447 26.546 49.7599 26.531 49.0819C26.517 48.4349 26.4759 47.7819 26.4099 47.1379L26.29 45.9619L27.29 45.3319L29.6069 43.8729L29.1541 42.2469L25.187 41.7469L24.7639 40.725C24.2458 39.4704 23.5497 38.297 22.697 37.241L22.21 36.641L22.666 31.8329L21.8159 31.126L21.7471 31.069L19.6011 34.3889L18.0149 33.4149C17.2282 32.9314 16.355 32.6053 15.4438 32.455L14.4958 32.298L14.0591 31.4419L13.6509 30.642L12.5168 28.418L12.394 28.4619C12.436 29.2199 12.478 29.978 12.52 30.736L12.575 31.731L12.6399 32.896L11.6321 33.4829C11.0079 33.8464 10.4653 34.3346 10.0381 34.917L9.11792 36.172L5.57007 34.533L5.31201 35.2729L8.36304 38.9729L8.31885 39.72C8.27785 40.4 8.26295 41.088 8.27295 41.766C8.28195 42.366 8.31089 42.978 8.35889 43.579L8.44995 44.7069L5.32495 46.75L5.87598 48.49L9.47607 49.0149L9.93701 49.8149C10.302 50.4449 10.6931 51.0659 11.1021 51.6609C11.4301 52.1389 11.777 52.6129 12.134 53.0699L12.634 53.7119L12.5159 54.5179C12.3199 55.8559 12.124 57.194 11.928 58.532L12.791 59.2899L13.9519 57.6899L14.8611 56.413ZM23.541 52.6969L21.8999 52.0549C19.2719 50.7702 17.2211 48.5469 16.1523 45.824C15.0836 43.101 15.0745 40.0762 16.127 37.3469L16.894 35.7599L18.5349 36.401C21.163 37.6856 23.2142 39.9088 24.283 42.6318C25.3518 45.3549 25.3605 48.3796 24.3079 51.1089L23.541 52.6969ZM19.0889 41.339C17.6058 39.6823 15.5564 38.6407 13.344 38.4193C11.1315 38.1979 8.91643 38.8128 7.13452 40.1427C5.35261 41.4726 4.13297 43.4213 3.71582 45.6053C3.29867 47.7894 3.71406 50.0504 4.88037 51.9435C6.04669 53.8365 7.87952 55.2245 10.0178 55.8341C12.1561 56.4437 14.4451 56.2308 16.4343 55.2373C18.4235 54.2438 19.9689 52.5419 20.7661 50.4662C21.5633 48.3905 21.5547 46.0916 20.7419 44.022C20.3604 43.0337 19.8 42.1242 19.0889 41.339Z" fill="white"/>
<path d="M17.9251 45.1288C17.4468 44.0344 17.1929 42.8551 17.1785 41.6608C17.1641 40.4665 17.3893 39.2816 17.8411 38.1759C16.8529 37.7534 15.7406 37.7251 14.7322 38.0968C11.9932 39.1718 11.032 43.2578 12.593 47.2228C14.154 51.1878 17.6321 53.5297 20.3711 52.4537C21.3619 52.0394 22.1567 51.2622 22.593 50.2809C21.5101 49.7778 20.5391 49.0625 19.7373 48.1776C18.9355 47.2927 18.3193 46.256 17.9251 45.1288Z" fill="url(#paint1_linear_2_18658)"/>
<path d="M9.53296 32.6421C9.89542 32.3168 10.2901 32.0292 10.7109 31.7841C10.6929 31.4507 10.6747 31.1191 10.656 30.7891L9.19092 30.1121L4.50098 31.8711L8.54004 33.738C8.83229 33.3394 9.16498 32.9721 9.53296 32.6421Z" fill="#B3B9BC"/>
<path d="M15.5312 58.751L13.1431 62.051L17.8333 60.292L18.2751 59.6819C17.9261 59.6009 17.556 59.5021 17.175 59.3821C16.6148 59.2053 16.066 58.9944 15.5312 58.751Z" fill="#888D8F"/>
<path d="M26.0391 26.4209L21.3491 28.1799L23.0691 29.61L24.6921 30.959L29.3821 29.2L26.0391 26.4209Z" fill="#C8CFD3"/>
<path d="M18.1831 24.25L13.4932 26.009L15.793 30.525L20.4832 28.7661L18.1831 24.25Z" fill="url(#paint2_linear_2_18658)"/>
<path d="M20.481 28.7659L15.791 30.5249C16.9453 30.7151 18.0516 31.1281 19.0481 31.741L20.917 28.85C20.764 28.816 20.618 28.7879 20.481 28.7659Z" fill="#ACB1B5"/>
<path d="M28.9048 34.2369L29.3828 29.2L24.6926 30.959L24.2148 35.996L28.9048 34.2369Z" fill="#A4A8AB"/>
<path d="M31.2498 38.1899C30.6618 36.7669 29.8721 35.436 28.9048 34.238L24.2148 35.9971C25.1821 37.1947 25.9719 38.5253 26.5598 39.948L31.2498 38.189V38.1899Z" fill="url(#paint3_linear_2_18658)"/>
<path d="M31.251 38.189L26.561 39.948L30.686 40.469L35.376 38.71L31.251 38.189Z" fill="#D0D6D9"/>
<path d="M35.3762 38.71L30.686 40.469L31.8591 44.6809L36.5491 42.9219L35.3762 38.71Z" fill="#B3B9BD"/>
<path d="M33.0308 45.1379L36.5488 42.9231L31.8589 44.6821L28.3418 46.897L33.0317 45.1379H33.0308Z" fill="#929799"/>
<path d="M33.1177 49.436C33.1597 48.756 33.1789 48.0188 33.1609 47.2358C33.1439 46.4888 33.0968 45.7889 33.0308 45.1409L28.3408 46.8999C28.4068 47.5479 28.4547 48.2479 28.4707 48.9949C28.4887 49.7819 28.4707 50.5188 28.4277 51.1948L33.1177 49.436Z" fill="url(#paint4_linear_2_18658)"/>
<path d="M36.4619 53.6919L33.1179 49.4358L28.4277 51.1948L31.7717 55.4497L36.4619 53.6909V53.6919Z" fill="#CED5D9"/>
<path d="M31.7717 55.4509L30.3818 59.0989L35.0718 57.3398L36.4619 53.6919L31.7717 55.4509Z" fill="#919699"/>
<path d="M27.783 57.7629L26.1689 56.9309C25.5553 57.6893 24.856 58.3742 24.085 58.9719C24.085 58.9779 24.085 58.9828 24.085 58.9888C24.734 58.8158 25.415 58.6148 26.126 58.3738C26.705 58.1738 27.261 57.9629 27.783 57.7629Z" fill="#B1B6BA"/>
<path d="M28.8279 58.2979L27.783 57.7588C27.261 57.9678 26.709 58.1738 26.126 58.3708C25.416 58.6108 24.735 58.8128 24.085 58.9858C24.091 59.0968 24.0958 59.2069 24.1008 59.3169C24.1822 60.9836 24.2636 62.6478 24.345 64.3098L29.0349 62.5508L28.8279 58.2979Z" fill="#888D8F"/>
<path d="M43.7437 26.2018C43.7277 25.4548 43.6798 24.7549 43.6138 24.1019L47.1306 21.8868L45.9587 17.6749L41.8337 17.1539C41.2456 15.7309 40.4559 14.3999 39.4888 13.2018L39.9668 8.16486L38.3438 6.81586L36.6238 5.38586L36.1907 6.05585L34.3218 8.94684C33.3252 8.33427 32.2189 7.92128 31.0647 7.73083L30.6567 6.93085L28.7627 3.21387L25.7227 4.29987L25.9277 7.99988L25.9836 8.99487C25.1333 9.49002 24.3944 10.1552 23.8127 10.9489L23.2847 10.7048L19.7747 9.08185L18.4746 12.8159L21.7317 16.7679C21.6907 17.4499 21.6716 18.1809 21.6826 18.9559C21.6926 19.6379 21.7257 20.2849 21.7747 20.8939L18.3877 23.1089L19.7336 27.3649L23.5986 27.9299C23.9626 28.5599 24.3748 29.2198 24.8418 29.8998C25.2108 30.4378 25.5807 30.9388 25.9417 31.3998C25.695 33.0792 25.4486 34.7582 25.2026 36.4369L28.4167 39.2599L30.8047 35.9598C31.1167 36.1018 31.4586 36.2438 31.8286 36.3788C32.0286 36.4508 32.2286 36.5219 32.4436 36.5889C32.8296 36.7109 33.1987 36.8089 33.5437 36.8889C33.7197 36.9299 33.8926 36.9679 34.0566 36.9999L36.5757 42.1678L39.6157 41.5168C39.5344 39.8502 39.4529 38.1859 39.3716 36.5239C39.3656 36.4079 39.3607 36.2919 39.3547 36.1749C40.1257 35.5771 40.825 34.8922 41.4387 34.1339L44.0977 35.5038L45.6506 36.3038L46.9807 32.8129L47.0408 32.6559L43.6968 28.3998C43.7388 27.7258 43.7567 26.9888 43.7437 26.2018ZM37.9058 27.4518C37.118 29.609 35.5987 31.4217 33.6123 32.5743C31.6259 33.7269 29.2982 34.1464 27.0344 33.7599C24.7706 33.3734 22.7141 32.2053 21.2227 30.4589C19.7312 28.7125 18.8995 26.4985 18.8721 24.2021C18.8447 21.9057 19.6232 19.6724 21.0725 17.8909C22.5218 16.1094 24.55 14.8925 26.804 14.4521C29.0579 14.0116 31.3949 14.3756 33.4082 15.4804C35.4215 16.5853 36.9837 18.3611 37.8228 20.4988C38.3003 21.5938 38.5533 22.7734 38.5669 23.9678C38.5805 25.1623 38.3541 26.3474 37.9016 27.4529L37.9058 27.4518Z" fill="url(#paint5_linear_2_18658)"/>
<path d="M35.5159 44.347L34.0159 41.273L32.7419 38.659C32.4419 38.582 32.1511 38.499 31.8621 38.408C31.7321 38.367 31.6029 38.324 31.4729 38.279L29.9529 40.379L28.7258 42.079L23.1619 37.192L23.3411 35.969C23.5411 34.6203 23.7385 33.2716 23.9338 31.923C23.7038 31.612 23.479 31.297 23.262 30.981C22.972 30.558 22.6899 30.125 22.4189 29.687L18.269 29.081L16.127 22.31L19.7959 19.91C19.7829 19.603 19.774 19.295 19.769 18.988C19.761 18.467 19.7689 17.941 19.7849 17.417L16.314 13.205L16.667 12.193L17.812 8.90997L18.6609 6.47601L23.321 8.63C23.3877 8.56334 23.4565 8.49963 23.5278 8.43896C23.6858 8.29696 23.8488 8.16101 24.0168 8.03101L23.7371 2.99396L29.6938 0.865967L30.4539 2.35797L32.344 6.06696C32.7127 6.16293 33.0761 6.27812 33.4329 6.41199L33.6399 6.492L34.585 5.02899L35.0081 4.37396L36.1829 2.55701L41.9519 7.35101L41.4519 12.642C41.8377 13.1656 42.195 13.7097 42.522 14.272C42.736 14.641 42.9388 15.02 43.1218 15.405L47.446 15.951L47.7859 17.171L48.958 21.384L49.3379 22.75L45.5969 25.106C45.6179 25.46 45.6329 25.812 45.6399 26.163C45.6519 26.704 45.6479 27.249 45.6289 27.791L49.197 32.333L48.8169 33.333L48.759 33.486V33.498L46.6709 38.977L41.8708 36.5L41.8049 36.565C41.6429 36.7243 41.4763 36.88 41.3049 37.032C41.3763 38.4946 41.4477 39.956 41.519 41.416L41.5989 43.042L35.5159 44.347ZM30.1689 33.584L31.5869 34.229C31.8749 34.36 32.174 34.483 32.478 34.594C32.662 34.662 32.8369 34.721 33.0129 34.777C33.3229 34.877 33.6369 34.961 33.9729 35.039C34.1479 35.08 34.2939 35.111 34.4189 35.139L35.3508 35.321L35.7668 36.174L37.4409 39.608L37.6331 40.002C37.5784 38.8766 37.5234 37.751 37.468 36.625L37.4009 35.287L38.187 34.678C38.8422 34.1702 39.4365 33.5883 39.958 32.944L40.9329 31.744L44.6331 33.644L44.8809 32.994L41.7549 29.016L41.8 28.292C41.842 27.616 41.8548 26.928 41.8398 26.247C41.8258 25.604 41.785 24.947 41.719 24.303L41.5989 23.128L44.916 21.039L44.4629 19.413L40.4958 18.913L40.073 17.89C39.5546 16.6358 38.8584 15.4628 38.0059 14.407L37.519 13.807L37.9749 8.99896L37.0559 8.23499L35.9199 9.992L34.9099 11.556L33.324 10.581C32.5375 10.0979 31.6646 9.77217 30.7539 9.62201L29.804 9.46497L29.3669 8.60699L28.96 7.80701L27.8259 5.58197L27.7029 5.62598L27.95 10.06L26.9409 10.647C26.3165 11.0105 25.7738 11.499 25.3469 12.082L24.426 13.338L20.8799 11.698L20.6218 12.438L23.6729 16.138L23.6289 16.885C23.5879 17.565 23.573 18.253 23.583 18.931C23.592 19.537 23.6209 20.146 23.6689 20.743L23.76 21.871L20.635 23.914L21.186 25.654L24.7859 26.179L25.2468 26.979C25.6098 27.606 26.0009 28.227 26.4119 28.825C26.7389 29.302 27.0868 29.776 27.4438 30.234L27.9438 30.876L27.8259 31.683C27.6299 33.021 27.434 34.3587 27.238 35.696L28.1021 36.454L29.2629 34.854L30.1689 33.584ZM38.8489 29.868L37.208 29.226C34.5801 27.9413 32.5293 25.7179 31.4607 22.9949C30.3921 20.2719 30.3833 17.2472 31.436 14.518L32.2029 12.931L33.844 13.573C36.4719 14.8577 38.5227 17.0811 39.5913 19.8041C40.6599 22.5271 40.6687 25.5518 39.616 28.281L38.8489 29.868ZM34.3918 18.513C32.9095 16.8575 30.8613 15.8167 28.6501 15.5956C26.439 15.3745 24.2251 15.9891 22.4443 17.3183C20.6636 18.6475 19.4449 20.5952 19.0281 22.7779C18.6112 24.9606 19.0265 27.2203 20.1921 29.1122C21.3578 31.0042 23.1892 32.3913 25.3262 33.0006C27.4632 33.6099 29.7509 33.3972 31.739 32.4044C33.7271 31.4117 35.2717 29.7107 36.0686 27.6364C36.8655 25.562 36.857 23.2645 36.0449 21.196C35.6636 20.2079 35.1037 19.2984 34.3931 18.513H34.3918Z" fill="white"/>
<path d="M33.2342 22.2999C32.756 21.2054 32.5021 20.0261 32.4879 18.8318C32.4736 17.6375 32.6993 16.4525 33.1512 15.3469C32.163 14.9245 31.0505 14.8963 30.0421 15.2679C27.3031 16.3429 26.3422 20.4289 27.9032 24.3939C29.4642 28.3589 32.9423 30.7009 35.6803 29.6249C36.6715 29.2109 37.4668 28.4335 37.9032 27.4519C36.82 26.9488 35.8489 26.2338 35.047 25.3489C34.245 24.4639 33.6286 23.4272 33.2342 22.2999Z" fill="url(#paint6_linear_2_18658)"/>
<path d="M24.842 9.81299C25.2045 9.48762 25.5992 9.20009 26.02 8.95496C26.002 8.62162 25.9838 8.28996 25.9651 7.95996L24.5 7.28296L19.8101 9.04199L23.8479 10.909C24.1405 10.5103 24.4738 10.143 24.842 9.81299Z" fill="#B3B9BC"/>
<path d="M30.8391 35.9219L28.4512 39.2219L33.1411 37.4629L33.5833 36.8518C33.2343 36.7718 32.8642 36.6728 32.4832 36.5518C31.9229 36.3752 31.3739 36.1649 30.8391 35.9219Z" fill="#888D8F"/>
<path d="M41.3481 3.59204L36.6582 5.35107L38.3792 6.78107L40.0022 8.13007L44.6921 6.37103L41.3481 3.59204Z" fill="#C8CFD3"/>
<path d="M33.4878 1.4209L28.7979 3.17993L31.0979 7.69592L35.7869 5.93689L33.4878 1.4209Z" fill="url(#paint7_linear_2_18658)"/>
<path d="M35.79 5.93701L31.1001 7.69604C32.2543 7.88644 33.3603 8.29944 34.3569 8.91205L36.2261 6.02106C36.0731 5.98706 35.927 5.96001 35.79 5.93701Z" fill="#ACB1B5"/>
<path d="M44.2161 11.4079C44.3754 9.72856 44.5345 8.04952 44.6938 6.37085L40.0039 8.12988C39.8446 9.80922 39.6852 11.4882 39.5259 13.1669L44.2161 11.4079Z" fill="#A4A8AB"/>
<path d="M46.5591 15.361C45.971 13.938 45.181 12.607 44.2139 11.4089L39.5239 13.168C40.491 14.3661 41.2807 15.6971 41.8689 17.12L46.5591 15.361Z" fill="url(#paint8_linear_2_18658)"/>
<path d="M46.5591 15.3601L41.8691 17.119L45.9941 17.64L50.6831 15.8811L46.5591 15.3601Z" fill="#D0D6D9"/>
<path d="M50.6851 15.8811L45.9946 17.64C46.386 19.044 46.777 20.4481 47.167 21.8521L51.8569 20.093C51.4656 18.689 51.0751 17.2851 50.6851 15.8811Z" fill="#B3B9BD"/>
<path d="M48.3401 22.308L51.8569 20.093L47.167 21.8521L43.6499 24.067L48.3401 22.308Z" fill="#929799"/>
<path d="M48.426 26.6071C48.468 25.9271 48.488 25.1901 48.47 24.4071C48.453 23.6601 48.4061 22.9601 48.3401 22.3071L43.6499 24.066C43.7159 24.714 43.764 25.414 43.78 26.166C43.797 26.952 43.7801 27.6891 43.7371 28.3661L48.426 26.6071Z" fill="url(#paint9_linear_2_18658)"/>
<path d="M51.7708 30.8629L48.4268 26.6069L43.7368 28.366L47.0808 32.6219L51.7708 30.8629Z" fill="#CED5D9"/>
<path d="M47.0811 32.6221L45.6909 36.27L50.3809 34.5111L51.771 30.863L47.0811 32.6221Z" fill="#919699"/>
<path d="M43.092 34.929L41.478 34.0969C40.8643 34.8552 40.165 35.5401 39.394 36.1379C39.394 36.1439 39.394 36.149 39.394 36.155C40.043 35.983 40.7241 35.781 41.4341 35.541C42.0181 35.343 42.57 35.143 43.092 34.929Z" fill="#B1B6BA"/>
<path d="M44.1372 35.469L43.092 34.9299C42.57 35.1389 42.0181 35.345 41.4351 35.542C40.7251 35.782 40.044 35.984 39.395 36.157L39.4111 36.488C39.4925 38.1547 39.5737 39.819 39.655 41.481L44.3452 39.7219C44.2759 38.3039 44.2065 36.8863 44.1372 35.469Z" fill="#888D8F"/>
<path d="M70.0522 41.499C70.0352 40.752 69.9881 40.052 69.9221 39.399L73.4392 37.184L72.2673 32.972L68.1423 32.451C67.5543 31.028 66.7643 29.697 65.7971 28.499C65.9571 26.8197 66.1165 25.1407 66.2751 23.462L64.6511 22.113L62.9312 20.683L62.4983 21.353L60.6292 24.244C59.6326 23.6314 58.5265 23.2183 57.3723 23.028L56.9653 22.228L55.0713 18.511L52.0312 19.597C52.0979 20.829 52.1666 22.0623 52.2373 23.297C52.2553 23.6303 52.2736 23.962 52.2922 24.292C51.442 24.7872 50.703 25.4523 50.1213 26.246L49.5933 26.002L46.0833 24.379L44.7832 28.114L48.0403 32.066C47.9993 32.748 47.9802 33.479 47.9912 34.254C48.0012 34.936 48.0343 35.583 48.0833 36.192L44.6963 38.407L46.0422 42.663L49.9072 43.228C50.2712 43.858 50.6831 44.518 51.1501 45.198C51.5191 45.736 51.8892 46.237 52.2502 46.698L51.5122 51.735L54.7263 54.558L57.1143 51.2581C57.4263 51.4001 57.7682 51.542 58.1382 51.677C58.3382 51.749 58.5435 51.819 58.7542 51.887C59.1402 52.01 59.5092 52.107 59.8542 52.187C60.0302 52.228 60.2032 52.266 60.3682 52.298L62.8872 57.4659L65.9272 56.8151C65.8459 55.1484 65.7644 53.484 65.6831 51.822C65.6771 51.706 65.6716 51.5897 65.6663 51.473C66.4373 50.8754 67.1366 50.1904 67.7502 49.432L70.4092 50.802L71.9622 51.6021L73.2922 48.111L73.3523 47.954L70.0083 43.698C70.0513 43.022 70.0722 42.285 70.0522 41.499ZM64.2141 42.749C63.4263 44.9065 61.907 46.7194 59.9204 47.8722C57.9338 49.025 55.6059 49.4446 53.3418 49.0581C51.0777 48.6716 49.0209 47.5034 47.5293 45.7568C46.0377 44.0103 45.2059 41.7959 45.1785 39.4993C45.1511 37.2026 45.9299 34.9691 47.3794 33.1874C48.8289 31.4057 50.8571 30.1887 53.1113 29.7483C55.3655 29.3078 57.7028 29.6718 59.7163 30.7769C61.7298 31.8819 63.292 33.658 64.1311 35.796C64.6092 36.8905 64.8629 38.0698 64.8772 39.264C64.8915 40.4583 64.6659 41.6434 64.2141 42.749Z" fill="url(#paint10_linear_2_18658)"/>
<path d="M61.8279 59.6429L59.0559 53.955C58.7559 53.878 58.463 53.795 58.175 53.703C58.045 53.662 57.9159 53.619 57.7859 53.574L55.0391 57.374L53.375 55.913L50.2529 53.171L49.4749 52.488L50.2471 47.219C50.0171 46.908 49.792 46.593 49.575 46.277C49.285 45.855 49.0029 45.422 48.7319 44.983L44.582 44.377L42.4399 37.606L46.1089 35.2061C46.0949 34.8981 46.086 34.5901 46.082 34.2841C46.074 33.7631 46.0819 33.237 46.0979 32.713L42.627 28.502L42.98 27.49L44.25 23.851L44.9749 21.772L49.635 23.927C49.7017 23.8603 49.7707 23.7966 49.842 23.736C50 23.594 50.1631 23.458 50.3311 23.328L50.051 18.292L56.0081 16.165L58.658 21.365C59.0267 21.4609 59.3903 21.576 59.7471 21.71L59.9539 21.79L60.8989 20.327L61.333 19.656L62.499 17.856L64.1489 19.228L65.8679 20.657L68.2681 22.649L68.168 23.661C68.0346 25.0877 67.8993 26.5144 67.762 27.941C68.1478 28.4647 68.505 29.0088 68.832 29.571C69.046 29.94 69.2489 30.319 69.4319 30.704L73.7559 31.25L75.6479 38.05L71.907 40.406C71.928 40.758 71.943 41.111 71.95 41.462C71.962 42.003 71.958 42.548 71.939 43.09L74.8389 46.79L75.5049 47.6381L75.0601 48.8051L74.26 50.892L72.968 54.282L71.075 53.307L69.8931 52.698L68.1641 51.807L68.0989 51.871C67.9362 52.0303 67.7695 52.1863 67.5989 52.339C67.6702 53.8057 67.7417 55.2704 67.813 56.733L67.8921 58.349L61.8279 59.6429ZM56.481 48.88L57.8989 49.525C58.1889 49.657 58.4881 49.779 58.7891 49.89C58.9731 49.957 59.148 50.017 59.325 50.073C59.633 50.173 59.9469 50.256 60.2849 50.335C60.4539 50.374 60.5999 50.4061 60.7319 50.4351L61.6631 50.6169L63.9441 55.297C63.8894 54.1717 63.8344 53.046 63.7791 51.92C63.7731 51.805 63.767 51.686 63.762 51.567L63.7161 50.58L64.4971 49.974C65.1523 49.4662 65.7465 48.8843 66.2681 48.24L67.2429 47.04L70.9429 48.9449L71.1899 48.295L68.5901 44.9821L68.0669 44.317L68.1121 43.593C68.1541 42.917 68.1669 42.229 68.1519 41.549C68.1379 40.903 68.097 40.249 68.031 39.606L67.9109 38.4301L71.228 36.3409L70.7759 34.715L66.8091 34.215L66.386 33.192C65.8677 31.9381 65.1717 30.7654 64.3191 29.71L63.8311 29.11L63.9041 28.337C64.0321 26.9917 64.1595 25.6467 64.2869 24.302L63.437 23.595L63.3679 23.538L62.2319 25.296L61.2209 26.86L59.635 25.884C58.8489 25.4009 57.9763 25.0753 57.0659 24.925L56.116 24.769L54.1379 20.887L54.0149 20.931L54.261 25.365L53.2529 25.952C52.6291 26.3156 52.0868 26.8037 51.6599 27.386L50.739 28.642L47.1919 27.0031L46.9341 27.743L49.9849 31.443L49.9409 32.1901C49.8999 32.8701 49.885 33.558 49.895 34.236C49.904 34.836 49.933 35.448 49.981 36.049L50.072 37.177L46.947 39.22L47.498 40.96L51.0979 41.485L51.5591 42.285C51.9231 42.914 52.3139 43.535 52.7239 44.13C53.0509 44.607 53.3989 45.0811 53.7559 45.5391L54.2559 46.181L53.55 51.001L54.4131 51.759L56.481 48.88ZM65.1609 45.1641L63.52 44.522C60.8921 43.2372 58.8413 41.0139 57.7727 38.2909C56.7041 35.5679 56.6953 32.5431 57.748 29.814L58.5149 28.2271L60.156 28.869C62.784 30.1538 64.8348 32.377 65.9036 35.1C66.9723 37.8229 66.9814 40.8477 65.929 43.577L65.1609 45.1641ZM60.7039 33.809C59.2208 32.1523 57.1714 31.1108 54.959 30.8894C52.7465 30.668 50.5314 31.2827 48.7495 32.6127C46.9676 33.9426 45.748 35.8914 45.3308 38.0754C44.9137 40.2595 45.3293 42.5205 46.4956 44.4136C47.6619 46.3066 49.4945 47.6946 51.6328 48.3042C53.7711 48.9138 56.0601 48.7009 58.0493 47.7074C60.0385 46.7139 61.5839 45.0118 62.3811 42.9362C63.1783 40.8605 63.1697 38.5616 62.3569 36.4919C61.9756 35.5038 61.4157 34.5943 60.7051 33.809H60.7039Z" fill="white"/>
<path d="M59.546 37.596C59.0676 36.5016 58.8138 35.3223 58.7994 34.128C58.7849 32.9337 59.0102 31.7486 59.462 30.643C58.4734 30.2205 57.3608 30.1921 56.3521 30.5639C53.6141 31.6399 52.6519 35.725 54.2129 39.69C55.7739 43.655 59.2518 45.9969 61.9908 44.9209C62.9816 44.5067 63.7767 43.7293 64.2129 42.748C63.1301 42.2448 62.1591 41.5296 61.3575 40.6447C60.5559 39.7598 59.9399 38.7231 59.546 37.596Z" fill="url(#paint11_linear_2_18658)"/>
<path d="M51.1538 25.1091C51.5163 24.7838 51.9107 24.4963 52.3315 24.2511L52.2759 23.2561L50.8115 22.5791L46.1216 24.3381L50.1606 26.2051C50.4531 25.8066 50.786 25.4393 51.1538 25.1091Z" fill="#B3B9BC"/>
<path d="M57.1514 51.218L54.7632 54.5181L59.4531 52.759L59.895 52.1479C59.546 52.0669 59.1759 51.9681 58.7949 51.8481C58.2346 51.6717 57.6861 51.4612 57.1514 51.218Z" fill="#888D8F"/>
<path d="M67.6602 18.8918L62.9702 20.6509L64.6909 22.0809L66.314 23.4299L71.0039 21.6709L67.6602 18.8918Z" fill="#C8CFD3"/>
<path d="M59.7998 16.717L55.1099 18.476L57.4097 22.9919L62.0986 21.233L59.7998 16.717Z" fill="url(#paint12_linear_2_18658)"/>
<path d="M62.1021 21.2332L57.4131 22.9921C58.5672 23.1827 59.6732 23.5957 60.6699 24.2081L62.5391 21.3171C62.3851 21.2831 62.2391 21.2562 62.1021 21.2332Z" fill="#ACB1B5"/>
<path d="M70.5259 26.704C70.6845 25.0246 70.8439 23.3457 71.0039 21.667L66.314 23.4259L65.8359 28.463L70.5259 26.704Z" fill="#A4A8AB"/>
<path d="M72.8706 30.657C72.2819 29.2343 71.4924 27.9036 70.5259 26.7051L65.8359 28.464C66.8032 29.6616 67.5927 30.9923 68.1807 32.415L72.8706 30.656V30.657Z" fill="url(#paint13_linear_2_18658)"/>
<path d="M72.8682 30.656L68.1782 32.415L72.3032 32.936L76.9932 31.177L72.8682 30.656Z" fill="#D0D6D9"/>
<path d="M76.9971 31.177L72.3066 32.936C72.698 34.34 73.089 35.7441 73.479 37.1481L78.1689 35.389C77.7783 33.985 77.3877 32.581 76.9971 31.177Z" fill="#B3B9BD"/>
<path d="M74.6519 37.605L78.1689 35.3901L73.48 37.1492L69.9619 39.364L74.6519 37.605Z" fill="#929799"/>
<path d="M74.7393 41.9031C74.7813 41.2231 74.8002 40.4861 74.7822 39.7031C74.7652 38.9561 74.7179 38.256 74.6519 37.603L69.9619 39.3621C70.0279 40.0101 70.0758 40.7099 70.0918 41.4619C70.1088 42.2479 70.0919 42.9851 70.0479 43.6621L74.7378 41.9031H74.7393Z" fill="url(#paint14_linear_2_18658)"/>
<path d="M78.083 46.1589L74.7388 41.9028L70.0488 43.6619L73.3926 47.917L78.083 46.158V46.1589Z" fill="#CED5D9"/>
<path d="M73.3916 47.918L72.002 51.5649L76.6919 49.8059L78.082 46.1589L73.3916 47.918Z" fill="#919699"/>
<path d="M69.4038 50.2261L67.7905 49.394C67.1768 50.1524 66.4775 50.8372 65.7065 51.4351C65.7065 51.4411 65.7065 51.4459 65.7065 51.4529C66.3555 51.2799 67.0366 51.0779 67.7476 50.8379C68.3296 50.6409 68.8818 50.4351 69.4038 50.2261Z" fill="#B1B6BA"/>
<path d="M70.4531 50.7639L69.4082 50.2249C68.8862 50.4339 68.334 50.6399 67.751 50.8369C67.041 51.0769 66.359 51.2779 65.71 51.4509C65.715 51.5609 65.7211 51.672 65.7261 51.782C65.8074 53.4486 65.8889 55.1129 65.9702 56.7749L70.6602 55.0159C70.5888 53.5992 70.5198 52.1819 70.4531 50.7639Z" fill="#888D8F"/>
<defs>
<linearGradient id="paint0_linear_2_18658" x1="4.2537" y1="32.1198" x2="35.8961" y2="49.3534" gradientUnits="userSpaceOnUse">
<stop stop-color="#D9E1E6"/>
<stop offset="1" stop-color="#D0DAE0"/>
</linearGradient>
<linearGradient id="paint1_linear_2_18658" x1="12.1349" y1="40.2474" x2="24.6302" y2="46.7668" gradientUnits="userSpaceOnUse">
<stop stop-color="#85888A"/>
<stop offset="0.238" stop-color="#888B8D"/>
<stop offset="0.456" stop-color="#929698"/>
<stop offset="0.666" stop-color="#A3A8AB"/>
<stop offset="0.804" stop-color="#B3B9BC"/>
</linearGradient>
<linearGradient id="paint2_linear_2_18658" x1="13.4932" y1="27.3875" x2="20.4832" y2="27.3875" gradientUnits="userSpaceOnUse">
<stop stop-color="#B3B9BC"/>
<stop offset="1" stop-color="#B3B9BC"/>
</linearGradient>
<linearGradient id="paint3_linear_2_18658" x1="24.2148" y1="37.093" x2="31.2498" y2="37.093" gradientUnits="userSpaceOnUse">
<stop stop-color="#BCC3C6"/>
<stop offset="1" stop-color="#AEB3B7"/>
</linearGradient>
<linearGradient id="paint4_linear_2_18658" x1="28.3408" y1="48.1678" x2="33.1676" y2="48.1678" gradientUnits="userSpaceOnUse">
<stop stop-color="#C0C7CB"/>
<stop offset="1" stop-color="#AAAFB3"/>
</linearGradient>
<linearGradient id="paint5_linear_2_18658" x1="19.5662" y1="9.29069" x2="51.208" y2="26.5234" gradientUnits="userSpaceOnUse">
<stop stop-color="#D9E1E6"/>
<stop offset="1" stop-color="#D0DAE0"/>
</linearGradient>
<linearGradient id="paint6_linear_2_18658" x1="27.445" y1="17.4186" x2="39.9403" y2="23.938" gradientUnits="userSpaceOnUse">
<stop stop-color="#85888A"/>
<stop offset="0.238" stop-color="#888B8D"/>
<stop offset="0.456" stop-color="#929698"/>
<stop offset="0.666" stop-color="#A3A8AB"/>
<stop offset="0.804" stop-color="#B3B9BC"/>
</linearGradient>
<linearGradient id="paint7_linear_2_18658" x1="28.7979" y1="4.55841" x2="35.7869" y2="4.55841" gradientUnits="userSpaceOnUse">
<stop stop-color="#B3B9BC"/>
<stop offset="1" stop-color="#B3B9BC"/>
</linearGradient>
<linearGradient id="paint8_linear_2_18658" x1="39.5239" y1="14.2645" x2="46.5591" y2="14.2645" gradientUnits="userSpaceOnUse">
<stop stop-color="#BCC3C6"/>
<stop offset="1" stop-color="#AEB3B7"/>
</linearGradient>
<linearGradient id="paint9_linear_2_18658" x1="43.6499" y1="25.3366" x2="48.4766" y2="25.3366" gradientUnits="userSpaceOnUse">
<stop stop-color="#C0C7CB"/>
<stop offset="1" stop-color="#AAAFB3"/>
</linearGradient>
<linearGradient id="paint10_linear_2_18658" x1="45.8747" y1="24.588" x2="77.517" y2="41.8204" gradientUnits="userSpaceOnUse">
<stop stop-color="#D9E1E6"/>
<stop offset="1" stop-color="#D0DAE0"/>
</linearGradient>
<linearGradient id="paint11_linear_2_18658" x1="53.755" y1="32.7145" x2="66.2502" y2="39.2336" gradientUnits="userSpaceOnUse">
<stop stop-color="#85888A"/>
<stop offset="0.238" stop-color="#888B8D"/>
<stop offset="0.456" stop-color="#929698"/>
<stop offset="0.666" stop-color="#A3A8AB"/>
<stop offset="0.804" stop-color="#B3B9BC"/>
</linearGradient>
<linearGradient id="paint12_linear_2_18658" x1="55.1099" y1="19.8545" x2="62.0986" y2="19.8545" gradientUnits="userSpaceOnUse">
<stop stop-color="#B3B9BC"/>
<stop offset="1" stop-color="#B3B9BC"/>
</linearGradient>
<linearGradient id="paint13_linear_2_18658" x1="65.8359" y1="29.5601" x2="72.8706" y2="29.5601" gradientUnits="userSpaceOnUse">
<stop stop-color="#BCC3C6"/>
<stop offset="1" stop-color="#AEB3B7"/>
</linearGradient>
<linearGradient id="paint14_linear_2_18658" x1="69.9619" y1="40.6326" x2="74.789" y2="40.6326" gradientUnits="userSpaceOnUse">
<stop stop-color="#C0C7CB"/>
<stop offset="1" stop-color="#AAAFB3"/>
</linearGradient>
</defs>
</svg>
