<svg width="353" height="349" viewBox="0 0 353 349" fill="none" xmlns="http://www.w3.org/2000/svg">
<path d="M301.123 303.596C287.524 348.353 250.527 349.964 233.728 345.175C214.512 339.81 169.548 332.102 143.418 344.181C110.757 359.28 73.4312 332.716 67.4764 309.527C61.5215 286.339 57.5629 264.903 22.3715 248.502C-12.8198 232.101 1.70128 185.03 18.824 172.17C35.9466 159.311 49.2711 121.473 39.7293 97.283C30.1875 73.0931 66.0813 29.5967 92.6867 45.0961C119.292 60.5956 150.601 42.4279 171.774 16.0492C192.946 -10.3294 256.069 -1.9764 258.927 32.3065C261.785 66.5894 291.109 95.1057 320.973 108.824C350.837 122.542 366.69 157.762 336.999 201.794C307.308 245.826 318.122 247.649 301.123 303.596Z" fill="#00AFA9"/>
</svg>
