<svg width="332" height="354" viewBox="0 0 332 354" fill="none" xmlns="http://www.w3.org/2000/svg">
<path d="M135.165 339.582C171.369 367.63 201.831 347.968 212.536 334.631C224.847 319.466 212.537 282.703 284.104 282.703C319.333 282.703 333.511 233.918 325.138 212.026C316.764 190.133 307.789 170.771 326.61 137.746C345.43 104.72 307.18 75.3467 286.223 74.7708C265.266 74.195 233.199 51.5184 227.124 26.7953C221.048 2.07215 167.752 -12.3448 155.278 15.0988C142.804 42.5425 107.511 45.7594 75.6644 36.6791C43.8178 27.5988 -1.86889 70.0113 15.2601 99.0112C32.389 128.011 25.1143 167.39 9.02919 195.257C-7.05593 223.123 -2.98597 274.8 48.8701 278.586C105.252 282.703 89.9107 304.522 135.165 339.582Z" fill="#00AFA9"/>
</svg>
