<svg width="370" height="346" viewBox="0 0 370 346" fill="none" xmlns="http://www.w3.org/2000/svg">
<path d="M282.312 317.769C258.232 356.348 220.691 347.163 204.93 337.748C186.876 327.087 143.501 306.74 114.441 310.648C78.1155 315.532 46.8041 279.486 46.2204 255.733C45.6366 231.979 46.65 210.47 15.1167 184.696C-16.4167 158.923 9.12844 118.413 29.3227 111.156C49.517 103.899 71.7107 71.813 67.7567 46.0697C63.8027 20.3264 109.986 -10.598 133.104 11.8317C156.222 34.2615 191.903 26.0707 219.313 7.14392C246.723 -11.7828 308.189 14.4347 303.079 47.8302C297.968 81.2257 320.787 116.808 347.594 138.49C374.401 160.172 382.127 198.221 342.05 231.451C301.973 264.681 312.412 269.545 282.312 317.769Z" fill="#00AFA9"/>
</svg>
